<svg width="512" height="512" viewBox="0 0 512 512" fill="none" xmlns="http://www.w3.org/2000/svg">
<rect width="512" height="512" rx="95" fill="#336791"/>
<g clip-path="url(#clip0)">
<path d="M363.205 370.227C366.038 346.626 365.189 343.165 382.768 346.988L387.231 347.38C400.748 347.995 418.43 345.206 428.818 340.38C451.18 330.004 464.44 312.68 442.39 317.232C392.093 327.608 388.635 310.577 388.635 310.577C441.746 231.774 463.948 131.741 444.784 107.255C392.514 40.4662 302.036 72.0492 300.522 72.8692L300.04 72.9582C290.102 70.8962 278.98 69.6642 266.486 69.4622C243.725 69.0882 226.454 75.4292 213.353 85.3662C213.353 85.3662 51.9451 18.8682 59.4541 168.994C61.0511 200.93 105.231 410.649 157.924 347.304C177.183 324.141 195.795 304.556 195.795 304.556C205.037 310.696 216.102 313.828 227.707 312.703L228.604 311.938C228.323 314.814 228.447 317.627 228.963 320.957C215.391 336.124 219.379 338.787 192.24 344.373C164.783 350.032 180.914 360.107 191.443 362.74C204.211 365.933 233.748 370.456 253.711 342.516L252.916 345.704C258.241 349.964 257.881 376.323 258.636 395.156C259.392 413.99 260.653 431.565 264.492 441.927C268.331 452.287 272.861 478.977 308.528 471.333C338.337 464.945 361.128 455.751 363.205 370.226" fill="black"/>
<path d="M363.205 370.227C366.038 346.626 365.189 343.165 382.768 346.988L387.231 347.38C400.748 347.995 418.43 345.206 428.818 340.38C451.18 330.004 464.44 312.68 442.39 317.232C392.093 327.608 388.635 310.577 388.635 310.577C441.746 231.774 463.948 131.741 444.784 107.255C392.514 40.4662 302.036 72.0492 300.522 72.8692L300.04 72.9582C290.102 70.8962 278.98 69.6642 266.486 69.4622C243.725 69.0882 226.454 75.4292 213.353 85.3662C213.353 85.3662 51.9451 18.8682 59.4541 168.994C61.0511 200.93 105.231 410.649 157.924 347.304C177.183 324.141 195.795 304.556 195.795 304.556C205.037 310.696 216.102 313.828 227.707 312.703L228.604 311.938C228.323 314.814 228.447 317.627 228.963 320.957C215.391 336.124 219.379 338.787 192.24 344.373C164.783 350.032 180.914 360.107 191.443 362.74C204.211 365.933 233.748 370.456 253.711 342.516L252.916 345.704C258.241 349.964 257.881 376.323 258.636 395.156C259.392 413.99 260.653 431.565 264.492 441.927C268.331 452.287 272.861 478.977 308.528 471.333C338.337 464.945 361.128 455.751 363.205 370.226" stroke="black" stroke-width="37.3953"/>
<path d="M442.395 317.23C392.093 327.606 388.635 310.575 388.635 310.575C441.746 231.767 463.948 131.732 444.788 107.249C392.518 40.4641 302.036 72.0491 300.526 72.8691L300.04 72.9561C290.102 70.8931 278.98 69.6641 266.48 69.4601C243.719 69.0871 226.454 75.4271 213.353 85.3621C213.353 85.3621 51.942 18.8671 59.449 168.992C61.046 200.93 105.225 410.649 157.92 347.304C177.18 324.141 195.789 304.556 195.789 304.556C205.032 310.696 216.097 313.828 227.697 312.703L228.598 311.938C228.318 314.814 228.446 317.627 228.959 320.957C215.384 336.124 219.373 338.787 192.236 344.373C164.777 350.032 180.908 360.107 191.44 362.74C204.208 365.933 233.747 370.456 253.706 342.516L252.91 345.704C258.229 349.964 261.964 373.415 261.338 394.673C260.712 415.932 260.294 430.527 264.485 441.927C268.676 453.327 272.853 478.977 308.527 471.333C338.336 464.945 353.783 448.391 355.932 420.778C357.457 401.147 360.908 404.049 361.126 386.498L363.894 378.189C367.086 351.578 364.401 342.993 382.766 346.986L387.229 347.378C400.746 347.993 418.437 345.204 428.82 340.378C451.178 330.002 464.438 312.678 442.393 317.23H442.395Z" fill="#336791"/>
<path d="M255.866 332.484C254.481 382 256.214 431.861 261.059 443.979C265.907 456.097 276.282 479.667 311.959 472.024C341.765 465.634 352.61 453.268 357.316 425.973C360.782 405.891 367.464 350.119 368.321 338.692" stroke="white" stroke-width="12.4651" stroke-linecap="round" stroke-linejoin="round"/>
<path d="M213.104 84.256C213.104 84.256 51.5831 18.24 59.0921 168.365C60.6891 200.303 104.871 410.029 157.565 346.681C176.821 323.515 194.236 305.346 194.236 305.346" stroke="white" stroke-width="12.4651" stroke-linecap="round" stroke-linejoin="round"/>
<path d="M300.349 72.2071C294.758 73.9601 390.197 37.3181 444.436 106.624C463.595 131.108 441.393 231.143 388.283 309.953" stroke="white" stroke-width="12.4651" stroke-linecap="round" stroke-linejoin="round"/>
<path d="M388.282 309.953C388.282 309.953 391.743 326.989 442.046 316.606C464.086 312.054 450.822 329.38 428.469 339.761C410.124 348.275 368.995 350.457 368.323 338.692C366.594 308.337 389.97 317.559 388.283 309.953C386.758 303.103 376.304 296.38 369.389 279.615C363.352 264.982 286.593 152.766 390.676 169.432C394.489 168.643 363.53 70.43 266.123 68.833C168.738 67.236 171.933 188.595 171.933 188.595" stroke="white" stroke-width="12.4651" stroke-linecap="round" stroke-linejoin="bevel"/>
<path d="M228.604 320.334C215.027 335.5 219.02 338.163 191.881 343.751C164.422 349.411 180.555 359.484 191.084 362.116C203.852 365.311 233.391 369.834 253.35 341.887C259.428 333.378 253.314 319.801 244.965 316.34C240.931 314.669 235.537 312.575 228.604 320.334V320.334Z" stroke="white" stroke-width="12.4651" stroke-linecap="round" stroke-linejoin="round"/>
<path d="M227.715 320.069C226.347 311.152 230.645 300.541 235.251 288.127C242.173 269.501 258.144 250.872 245.368 191.788C235.845 147.759 171.972 182.625 171.932 188.595C171.893 194.563 174.821 218.855 170.865 247.143C165.703 284.056 194.353 315.275 227.344 312.081" stroke="white" stroke-width="12.4651" stroke-linecap="round" stroke-linejoin="round"/>
<path d="M212.517 187.7C212.229 189.739 216.25 195.18 221.493 195.907C226.727 196.637 231.207 192.385 231.491 190.348C231.775 188.309 227.759 186.063 222.514 185.333C217.277 184.602 212.795 185.666 212.518 187.7H212.517Z" fill="white" stroke="white" stroke-width="4.155"/>
<path d="M371.941 183.543C372.225 185.582 368.209 191.023 362.965 191.75C357.727 192.48 353.247 188.228 352.96 186.191C352.683 184.152 356.7 181.906 361.939 181.176C367.178 180.446 371.657 181.509 371.941 183.544V183.543Z" fill="white" stroke="white" stroke-width="2.0775"/>
<path d="M390.676 169.432C391.539 185.426 387.231 196.32 386.688 213.346C385.884 238.094 398.487 266.42 379.497 294.781" stroke="white" stroke-width="12.4651" stroke-linecap="round" stroke-linejoin="round"/>
</g>
<path d="M154.648 385H69.3516C63.6346 385 59 389.635 59 395.352V480.648C59 486.365 63.6346 491 69.3516 491H154.648C160.365 491 165 486.365 165 480.648V395.352C165 389.635 160.365 385 154.648 385Z" fill="#3178C6"/>
<path d="M154.648 385H69.3516C63.6346 385 59 389.635 59 395.352V480.648C59 486.365 63.6346 491 69.3516 491H154.648C160.365 491 165 486.365 165 480.648V395.352C165 389.635 160.365 385 154.648 385Z" fill="#3178C6"/>
<path fill-rule="evenodd" clip-rule="evenodd" d="M124.616 469.35V479.714C126.301 480.577 128.294 481.225 130.594 481.657C132.895 482.089 135.319 482.305 137.868 482.305C140.353 482.305 142.712 482.067 144.948 481.592C147.184 481.117 149.144 480.334 150.829 479.244C152.514 478.154 153.848 476.729 154.83 474.969C155.813 473.209 156.305 471.034 156.305 468.443C156.305 466.564 156.024 464.918 155.462 463.504C154.901 462.089 154.091 460.832 153.032 459.73C151.974 458.629 150.705 457.641 149.225 456.767C147.745 455.892 146.077 455.066 144.219 454.289C142.858 453.728 141.638 453.183 140.558 452.654C139.478 452.125 138.56 451.585 137.804 451.034C137.047 450.484 136.464 449.901 136.054 449.285C135.644 448.67 135.438 447.974 135.438 447.196C135.438 446.484 135.622 445.841 135.989 445.269C136.356 444.697 136.875 444.206 137.544 443.795C138.214 443.385 139.035 443.067 140.007 442.84C140.979 442.613 142.059 442.5 143.247 442.5C144.111 442.5 145.024 442.565 145.985 442.694C146.946 442.824 147.913 443.024 148.885 443.293C149.857 443.563 150.802 443.903 151.72 444.314C152.638 444.724 153.486 445.199 154.263 445.739V436.055C152.687 435.45 150.964 435.002 149.095 434.711C147.227 434.419 145.083 434.273 142.664 434.273C140.201 434.273 137.868 434.538 135.665 435.067C133.462 435.596 131.523 436.422 129.849 437.545C128.175 438.667 126.852 440.098 125.88 441.836C124.908 443.574 124.422 445.652 124.422 448.071C124.422 451.158 125.313 453.793 127.095 455.973C128.877 458.154 131.582 460 135.212 461.512C136.637 462.095 137.966 462.667 139.197 463.228C140.428 463.79 141.492 464.373 142.388 464.977C143.285 465.582 143.992 466.24 144.511 466.953C145.029 467.665 145.288 468.475 145.288 469.382C145.288 470.051 145.126 470.672 144.802 471.244C144.478 471.816 143.987 472.313 143.328 472.734C142.669 473.155 141.848 473.484 140.866 473.722C139.883 473.959 138.732 474.078 137.415 474.078C135.168 474.078 132.943 473.684 130.74 472.896C128.537 472.108 126.495 470.926 124.616 469.35ZM107.193 443.814H120.488V435.309H83.4297V443.814H96.6602V481.684H107.193V443.814Z" fill="white"/>
<defs>
<clipPath id="clip0">
<rect width="432.071" height="445.383" fill="white" transform="translate(40 46)"/>
</clipPath>
</defs>
</svg>
